# xmcd
#
# Track frame offsets: 
#        150
#        11074
#        20044
#        31530
#        44815
#        54686
#        68818
#        82638
#        95004
#        110331
#        123281
#        134783
#        145835
#        157954
#        170270
#        183905
#        193259
#        205875
#        214721
#        225585
#
# Disc length: 3152 seconds
#
# Revision: 1
# Processed by: cddbd v1.5.2PL0 Copyright (c) Steve Scherf et al.
# Submitted via: ExactAudioCopy v0.95b4
#
DISCID=160c4e14
DTITLE=Various Artist - 200 Country Classics  -  CD 8
DYEAR=2008
DGENRE=Country
TTITLE0=Gene Autry - You Are My Sunshine
TTITLE1=Frankie Lane - Rawhide
TTITLE2=Skeeter Davis - Crying Time
TTITLE3=Don Williams - Ruby Tuesday
TTITLE4=Kitty Wells - I Can;t Stop Loving You
TTITLE5=Conway Twitty - You've Never Been This Far Before
TTITLE6=George Jones - A Good Year For The Roses
TTITLE7=Kenny Rogers - Deep In The Heart Of Texas
TTITLE8=Kenny Rogers - My Washington Woman
TTITLE9=TG Sheppard - Devil In The Bottle
TTITLE10=Charlie Walker - Pick Me Up On Your Way Down
TTITLE11=Anne Murray - The Last Thing On My Mind
TTITLE12=Stonewall Jackson - Me And You And A Dog Named Boo
TTITLE13=Bill Monroe - New Muleskinner Blues
TTITLE14=Patti Page - Tennessee Waltz
TTITLE15=Dolly Parton - Girl Left Alone
TTITLE16=Roy Rogers - Don't Fence Me In
TTITLE17=Foron Young - Alone With You
TTITLE18=Gene Autry - Can't Shake The Sands Of Texas From My Shoes
TTITLE19=George Jones - Tender Years
EXTD=YEAR: 2008
EXTT0=
EXTT1=
EXTT2=
EXTT3=
EXTT4=
EXTT5=
EXTT6=
EXTT7=
EXTT8=
EXTT9=
EXTT10=
EXTT11=
EXTT12=
EXTT13=
EXTT14=
EXTT15=
EXTT16=
EXTT17=
EXTT18=
EXTT19=
PLAYORDER=
